# xmcd CD database file
#
# Track frame offsets:
#	150
#	19947
#	40111
#	61624
#	82977
#	105017
#	129428
#	175233
#	198112
#	214353
#	233564
#	252480
#	267236
#	288017
#	311096
#	332131
#
# Disc length: 4740 seconds
#
# Revision: 0
# Processed by: cddbd v1.5.1PL0 Copyright (c) Steve Scherf et al.
# Submitted via: CDex 1.51
#
DISCID=d1128210
DTITLE=色々 - 2005ラジオリクエストみたいな
DYEAR=2005
DGENRE=JPop
TTITLE0=nobodyknows+ - エル・ミラドール〜展望台の唄〜
TTITLE1=クリスタルケイ - 恋におちたら
TTITLE2=リップスライム -  楽園ベイベー
TTITLE3=倖田來未 - flower
TTITLE4=今井美樹 - 愛の詩
TTITLE5=一青窈-ハナミズキ
TTITLE6=森山良子 - さとうきび畑
TTITLE7=サンボマスター - 世界はそれを愛と呼ぶんだぜ
TTITLE8=O-ZONE - Dragostea din tei
TTITLE9=nobodyknows+ - SUMMER
TTITLE10=nobodyknows+ - ココロオドル
TTITLE11=nobodyknows+ - さくら Spring Field version
TTITLE12=nobodyknows+ - ススミダス→
TTITLE13=nobodyknows+ - ポロン2
TTITLE14=nobodyknows+ - 以来絶頂
TTITLE15=nobodyknows+ - シアワセナラテヲタタコウ
EXTD=YEAR: 2005
EXTT0=
EXTT1=
EXTT2=
EXTT3=
EXTT4=
EXTT5=
EXTT6=
EXTT7=
EXTT8=
EXTT9=
EXTT10=
EXTT11=
EXTT12=
EXTT13=
EXTT14=
EXTT15=
PLAYORDER=
